<svg width="85" height="43" viewBox="0 0 85 43" fill="none" xmlns="http://www.w3.org/2000/svg">
<path d="M19.3372 2.9543C19.6164 13.9345 15.9439 15.1812 5.18109 22.9629L4.06445 17.5537C18.6645 7.91854 19.315 0.969676 19.3372 0.0935632V0C19.3372 0 19.3388 0.0315873 19.3372 0.0935632V2.9543Z" fill="url(#paint0_linear_0_1)"/>
<path d="M10.578 28.7384C17.8345 23.1491 19.3244 21.1485 19.3244 18.8684V13.9834C19.3244 13.9834 18.7185 17.659 6.61914 25.3219L10.578 28.7384Z" fill="url(#paint1_linear_0_1)"/>
<g filter="url(#filter0_d_0_1)">
<path d="M4.0994 17.4741L4.00458 25.0987C3.82025 27.1516 9.25607 29.2652 10.9772 37.9656C14.0486 26.1945 4.70425 21.4754 4.0994 17.4741Z" fill="url(#paint2_linear_0_1)"/>
</g>
<path d="M38.9311 12.4223H30.883V20.1484H29.5953V11.1346H38.9311V12.4223ZM37.8236 16.2854H31.5269V14.9977H37.8236V16.2854ZM52.0952 20.4704C52.0952 20.8824 51.9922 21.2601 51.7862 21.6035C51.5887 21.9469 51.3183 22.2173 50.9749 22.4148C50.6401 22.6208 50.2624 22.7238 49.8418 22.7238H44.691V21.4361H49.8418C50.1079 21.4361 50.3354 21.3417 50.5242 21.1528C50.7131 20.964 50.8075 20.7365 50.8075 20.4704V20.1484H47.2664C46.7771 20.1484 46.3178 20.0583 45.8886 19.878C45.4679 19.6892 45.0945 19.4316 44.7683 19.1054C44.4507 18.7792 44.2017 18.4058 44.0214 17.9851C43.8412 17.5559 43.751 17.0966 43.751 16.6073V13.0662H45.0387V16.6073C45.0387 17.0194 45.1374 17.3971 45.3349 17.7405C45.5409 18.0753 45.8113 18.3457 46.1461 18.5517C46.4809 18.7492 46.8543 18.8522 47.2664 18.8608H50.8075V13.0662H52.0952V20.4704ZM64.8459 14.3539H60.0171C59.751 14.3539 59.5235 14.4483 59.3346 14.6371C59.1458 14.826 59.0513 15.0535 59.0513 15.3196V20.1484H57.7637V15.3196C57.7637 14.899 57.8624 14.5212 58.0598 14.1865C58.2659 13.8431 58.5406 13.5727 58.8839 13.3752C59.2273 13.1692 59.605 13.0662 60.0171 13.0662H64.8459V14.3539ZM71.361 11.4566C71.361 11.7227 71.2666 11.9502 71.0777 12.139C70.8889 12.3279 70.6614 12.4223 70.3953 12.4223C70.1291 12.4223 69.9016 12.3279 69.7128 12.139C69.5239 11.9502 69.4295 11.7227 69.4295 11.4566C69.4295 11.1904 69.5239 10.9629 69.7128 10.7741C69.9016 10.5852 70.1291 10.4908 70.3953 10.4908C70.6614 10.4908 70.8889 10.5852 71.0777 10.7741C71.2666 10.9629 71.361 11.1904 71.361 11.4566ZM71.0391 20.1484H69.7514V13.0662H71.0391V20.1484ZM84.1495 17.895C84.1495 18.3156 84.0465 18.6976 83.8405 19.041C83.6431 19.3758 83.3726 19.6462 83.0293 19.8523C82.6945 20.0497 82.3167 20.1484 81.8961 20.1484H76.4234V18.8608H81.8961C82.1622 18.8608 82.3897 18.7663 82.5786 18.5775C82.7674 18.3886 82.8619 18.1611 82.8619 17.895C82.8619 17.6289 82.7674 17.4014 82.5786 17.2125C82.3897 17.0237 82.1622 16.9292 81.8961 16.9292H78.355C78.003 16.9292 77.6768 16.8434 77.3763 16.6717C77.0844 16.5 76.8527 16.2682 76.681 15.9763C76.5093 15.6759 76.4234 15.3497 76.4234 14.9977C76.4234 14.6371 76.5093 14.3109 76.681 14.0191C76.8527 13.7272 77.0844 13.4954 77.3763 13.3237C77.6768 13.152 78.003 13.0662 78.355 13.0662H83.5057V14.3539H78.355C78.1747 14.3539 78.0202 14.4182 77.8914 14.547C77.7712 14.6672 77.7111 14.8174 77.7111 14.9977C77.7111 15.178 77.7712 15.3325 77.8914 15.4613C78.0202 15.5814 78.1747 15.6415 78.355 15.6415H81.8961C82.3167 15.6415 82.6945 15.7446 83.0293 15.9506C83.3726 16.148 83.6431 16.4184 83.8405 16.7618C84.0465 17.0966 84.1495 17.4743 84.1495 17.895Z" fill="white"/>
<path d="M31.0985 26.9775V24.2569H30.1902V23.9645H32.317V24.2569H31.4087V26.9775H31.0985ZM35.909 27.0173C35.7141 27.0173 35.5353 26.976 35.3729 26.8933C35.2134 26.8076 35.0849 26.6895 34.9874 26.5388C34.8899 26.3852 34.8412 26.2065 34.8412 26.0027C34.8412 25.8136 34.887 25.6423 34.9785 25.4887C35.0701 25.3351 35.1927 25.2125 35.3463 25.1209C35.4999 25.0294 35.6712 24.9836 35.8603 24.9836C36.0434 24.9836 36.2118 25.0294 36.3654 25.1209C36.519 25.2125 36.6431 25.3336 36.7376 25.4843C36.8321 25.6349 36.8794 25.8018 36.8794 25.985V26.109H35.0361V25.821H36.5515C36.516 25.6733 36.4333 25.5493 36.3034 25.4488C36.1763 25.3454 36.0287 25.2937 35.8603 25.2937C35.7214 25.2937 35.5989 25.3262 35.4925 25.3912C35.3891 25.4562 35.3079 25.5448 35.2488 25.6571C35.1897 25.7664 35.1602 25.8904 35.1602 26.0293C35.1602 26.1651 35.1942 26.2848 35.2621 26.3882C35.3301 26.4886 35.4172 26.5669 35.5235 26.623C35.6299 26.6791 35.7421 26.7072 35.8603 26.7072C35.9518 26.7072 36.036 26.6968 36.1128 26.6762C36.1926 26.6555 36.265 26.6245 36.3299 26.5831C36.3979 26.5418 36.4584 26.4886 36.5116 26.4236L36.7464 26.6186C36.6815 26.7013 36.6017 26.7736 36.5072 26.8357C36.4156 26.8948 36.3181 26.9405 36.2147 26.973C36.1114 27.0026 36.0095 27.0173 35.909 27.0173ZM40.8196 27.0306C40.7015 27.0306 40.5848 27.0055 40.4696 26.9553C40.3544 26.9051 40.2495 26.8357 40.155 26.7471C40.0634 26.6555 39.9896 26.5477 39.9334 26.4236C39.8773 26.2995 39.8493 26.1622 39.8493 26.0115C39.8493 25.8254 39.8936 25.6556 39.9822 25.502C40.0708 25.3484 40.1904 25.2258 40.3411 25.1342C40.4917 25.0427 40.6601 24.9969 40.8462 24.9969C40.9909 24.9969 41.1268 25.0264 41.2538 25.0855C41.3838 25.1446 41.4975 25.2302 41.595 25.3425C41.6925 25.4518 41.7619 25.5832 41.8033 25.7368H41.4665C41.4133 25.6098 41.3306 25.5094 41.2184 25.4355C41.1061 25.3587 40.9924 25.3203 40.8772 25.3203C40.7502 25.3203 40.632 25.3499 40.5227 25.4089C40.4164 25.4651 40.3307 25.5448 40.2658 25.6482C40.2008 25.7516 40.1683 25.8727 40.1683 26.0115C40.1683 26.1356 40.1978 26.2508 40.2569 26.3571C40.316 26.4635 40.3972 26.5492 40.5006 26.6141C40.604 26.6762 40.7192 26.7072 40.8462 26.7072C40.9703 26.7072 41.084 26.6747 41.1874 26.6097C41.2937 26.5447 41.3764 26.4576 41.4355 26.3483H41.7855C41.7353 26.493 41.6615 26.6171 41.564 26.7205C41.4665 26.8209 41.3543 26.8977 41.2272 26.9509C41.1002 27.0041 40.9643 27.0306 40.8196 27.0306ZM44.9513 26.9863V23.6632H45.2615V25.3735C45.3235 25.2672 45.4047 25.1785 45.5052 25.1076C45.6085 25.0338 45.7326 24.9969 45.8774 24.9969C46.0398 24.9969 46.1742 25.0294 46.2806 25.0944C46.3899 25.1564 46.4711 25.245 46.5243 25.3602C46.5804 25.4754 46.6084 25.6113 46.6084 25.7678V26.9863H46.2983V25.7678C46.2983 25.691 46.2865 25.6172 46.2628 25.5463C46.2422 25.4754 46.2038 25.4178 46.1476 25.3735C46.0945 25.3292 46.0206 25.307 45.9261 25.307C45.7666 25.307 45.6381 25.341 45.5406 25.4089C45.4431 25.4769 45.3722 25.5758 45.3279 25.7058C45.2836 25.8328 45.2615 25.9879 45.2615 26.1711V26.9863H44.9513ZM49.8425 26.9863V25.0368H50.1527V25.3735C50.2147 25.2672 50.2989 25.1785 50.4053 25.1076C50.5116 25.0338 50.6371 24.9969 50.7819 24.9969C50.9355 24.9969 51.0655 25.0279 51.1718 25.0899C51.2781 25.149 51.3594 25.2361 51.4155 25.3513C51.4716 25.4636 51.4997 25.6024 51.4997 25.7678V26.9863H51.1895V25.7678C51.1895 25.691 51.1777 25.6172 51.1541 25.5463C51.1334 25.4754 51.095 25.4178 51.0389 25.3735C50.9857 25.3292 50.9119 25.307 50.8173 25.307C50.6578 25.307 50.5293 25.3454 50.4318 25.4222C50.3344 25.499 50.2635 25.6039 50.2192 25.7368C50.1749 25.8668 50.1527 26.0115 50.1527 26.1711V26.9863H49.8425ZM55.62 27.0173C55.4339 27.0173 55.2625 26.973 55.106 26.8844C54.9524 26.7928 54.8298 26.6703 54.7382 26.5167C54.6466 26.3631 54.6009 26.1917 54.6009 26.0027C54.6009 25.8136 54.6466 25.6423 54.7382 25.4887C54.8298 25.3351 54.9524 25.2125 55.106 25.1209C55.2596 25.0294 55.4309 24.9836 55.62 24.9836C55.809 24.9836 55.9803 25.0294 56.1339 25.1209C56.2875 25.2125 56.4101 25.3351 56.5017 25.4887C56.5933 25.6423 56.639 25.8136 56.639 26.0027C56.639 26.1917 56.5933 26.3631 56.5017 26.5167C56.4101 26.6703 56.2861 26.7928 56.1295 26.8844C55.9759 26.973 55.806 27.0173 55.62 27.0173ZM55.62 26.7072C55.7499 26.7072 55.8681 26.6762 55.9744 26.6141C56.0837 26.5492 56.1694 26.4635 56.2314 26.3571C56.2964 26.2508 56.3289 26.1327 56.3289 26.0027C56.3289 25.8698 56.2964 25.7501 56.2314 25.6438C56.1694 25.5374 56.0852 25.4533 55.9788 25.3912C55.8725 25.3262 55.7529 25.2937 55.62 25.2937C55.49 25.2937 55.3703 25.3262 55.2611 25.3912C55.1547 25.4533 55.069 25.5374 55.0041 25.6438C54.942 25.7501 54.911 25.8698 54.911 26.0027C54.911 26.1327 54.942 26.2508 55.0041 26.3571C55.069 26.4635 55.1547 26.5492 55.2611 26.6141C55.3703 26.6762 55.49 26.7072 55.62 26.7072ZM59.8073 26.9863V23.6632H60.1174V26.9863H59.8073ZM64.3034 27.0173C64.1173 27.0173 63.946 26.973 63.7894 26.8844C63.6358 26.7928 63.5132 26.6703 63.4216 26.5167C63.3301 26.3631 63.2843 26.1917 63.2843 26.0027C63.2843 25.8136 63.3301 25.6423 63.4216 25.4887C63.5132 25.3351 63.6358 25.2125 63.7894 25.1209C63.943 25.0294 64.1143 24.9836 64.3034 24.9836C64.4924 24.9836 64.6637 25.0294 64.8174 25.1209C64.971 25.2125 65.0935 25.3351 65.1851 25.4887C65.2767 25.6423 65.3225 25.8136 65.3225 26.0027C65.3225 26.1917 65.2767 26.3631 65.1851 26.5167C65.0935 26.6703 64.9695 26.7928 64.8129 26.8844C64.6593 26.973 64.4895 27.0173 64.3034 27.0173ZM64.3034 26.7072C64.4333 26.7072 64.5515 26.6762 64.6578 26.6141C64.7671 26.5492 64.8528 26.4635 64.9148 26.3571C64.9798 26.2508 65.0123 26.1327 65.0123 26.0027C65.0123 25.8698 64.9798 25.7501 64.9148 25.6438C64.8528 25.5374 64.7686 25.4533 64.6623 25.3912C64.5559 25.3262 64.4363 25.2937 64.3034 25.2937C64.1734 25.2937 64.0538 25.3262 63.9445 25.3912C63.8381 25.4533 63.7525 25.5374 63.6875 25.6438C63.6255 25.7501 63.5944 25.8698 63.5944 26.0027C63.5944 26.1327 63.6255 26.2508 63.6875 26.3571C63.7525 26.4635 63.8381 26.5492 63.9445 26.6141C64.0538 26.6762 64.1734 26.7072 64.3034 26.7072ZM69.2898 28.094C69.1657 28.094 69.0505 28.0719 68.9442 28.0276C68.8408 27.9833 68.7478 27.9227 68.6651 27.8459C68.5853 27.7691 68.5203 27.682 68.4701 27.5845C68.4199 27.487 68.3859 27.3836 68.3682 27.2743H68.6783C68.7138 27.4279 68.7906 27.5505 68.9088 27.6421C69.0269 27.7366 69.1539 27.7839 69.2898 27.7839C69.4198 27.7839 69.5365 27.7514 69.6398 27.6864C69.7432 27.6244 69.8245 27.5402 69.8835 27.4338C69.9456 27.3275 69.9766 27.2108 69.9766 27.0838V26.6584C69.9352 26.7175 69.8791 26.7766 69.8082 26.8357C69.7403 26.8918 69.659 26.9391 69.5645 26.9775C69.4729 27.0129 69.3666 27.0306 69.2455 27.0306C69.0624 27.0306 68.8984 26.9834 68.7537 26.8888C68.6089 26.7943 68.4952 26.6703 68.4125 26.5167C68.3327 26.3601 68.2929 26.1917 68.2929 26.0115C68.2929 25.8314 68.3327 25.6645 68.4125 25.5109C68.4952 25.3543 68.6089 25.2288 68.7537 25.1342C68.8984 25.0397 69.0624 24.9924 69.2455 24.9924C69.3666 24.9924 69.4744 25.0131 69.5689 25.0545C69.6664 25.0929 69.7491 25.1416 69.8171 25.2007C69.885 25.2568 69.9382 25.3115 69.9766 25.3646V25.0368H70.2867V27.0838C70.2867 27.2699 70.2424 27.4383 70.1538 27.5889C70.0652 27.7425 69.9456 27.8651 69.7949 27.9567C69.6443 28.0483 69.4759 28.094 69.2898 28.094ZM69.2898 26.7205C69.4227 26.7205 69.5409 26.688 69.6443 26.623C69.7477 26.5551 69.8289 26.4679 69.888 26.3616C69.947 26.2523 69.9766 26.1356 69.9766 26.0115C69.9766 25.8845 69.947 25.7678 69.888 25.6615C69.8289 25.5552 69.7477 25.4695 69.6443 25.4045C69.5409 25.3366 69.4227 25.3026 69.2898 25.3026C69.1628 25.3026 69.0461 25.3351 68.9398 25.4001C68.8364 25.4651 68.7537 25.5507 68.6916 25.6571C68.6326 25.7634 68.603 25.8816 68.603 26.0115C68.603 26.1386 68.6326 26.2567 68.6916 26.366C68.7537 26.4723 68.8364 26.558 68.9398 26.623C69.0461 26.688 69.1628 26.7205 69.2898 26.7205ZM73.6118 26.9863V25.0368H73.9219V26.9863H73.6118ZM73.7669 24.7C73.7107 24.7 73.6635 24.6808 73.6251 24.6424C73.5867 24.604 73.5675 24.5567 73.5675 24.5006C73.5675 24.4475 73.5867 24.4017 73.6251 24.3633C73.6635 24.3249 73.7107 24.3057 73.7669 24.3057C73.82 24.3057 73.8658 24.3249 73.9042 24.3633C73.9426 24.4017 73.9618 24.4475 73.9618 24.5006C73.9618 24.5567 73.9426 24.604 73.9042 24.6424C73.8658 24.6808 73.82 24.7 73.7669 24.7ZM78.1301 27.0173C77.9352 27.0173 77.7565 26.976 77.594 26.8933C77.4345 26.8076 77.306 26.6895 77.2085 26.5388C77.111 26.3852 77.0623 26.2065 77.0623 26.0027C77.0623 25.8136 77.1081 25.6423 77.1997 25.4887C77.2912 25.3351 77.4138 25.2125 77.5674 25.1209C77.721 25.0294 77.8924 24.9836 78.0814 24.9836C78.2645 24.9836 78.4329 25.0294 78.5865 25.1209C78.7401 25.2125 78.8642 25.3336 78.9587 25.4843C79.0532 25.6349 79.1005 25.8018 79.1005 25.985V26.109H77.2573V25.821H78.7726C78.7372 25.6733 78.6545 25.5493 78.5245 25.4488C78.3975 25.3454 78.2498 25.2937 78.0814 25.2937C77.9426 25.2937 77.82 25.3262 77.7136 25.3912C77.6103 25.4562 77.529 25.5448 77.4699 25.6571C77.4109 25.7664 77.3813 25.8904 77.3813 26.0293C77.3813 26.1651 77.4153 26.2848 77.4832 26.3882C77.5512 26.4886 77.6383 26.5669 77.7447 26.623C77.851 26.6791 77.9632 26.7072 78.0814 26.7072C78.173 26.7072 78.2572 26.6968 78.334 26.6762C78.4137 26.6555 78.4861 26.6245 78.5511 26.5831C78.619 26.5418 78.6796 26.4886 78.7327 26.4236L78.9676 26.6186C78.9026 26.7013 78.8228 26.7736 78.7283 26.8357C78.6367 26.8948 78.5393 26.9405 78.4359 26.973C78.3325 27.0026 78.2306 27.0173 78.1301 27.0173ZM82.7926 27.0439C82.642 27.0439 82.512 27.0218 82.4027 26.9775C82.2963 26.9332 82.2107 26.8667 82.1457 26.7781C82.0807 26.6865 82.0364 26.5743 82.0128 26.4413H82.3407C82.3643 26.527 82.3983 26.5964 82.4426 26.6496C82.4869 26.6998 82.54 26.7352 82.6021 26.7559C82.6641 26.7766 82.7335 26.7869 82.8103 26.7869C82.9521 26.7869 83.0585 26.7604 83.1293 26.7072C83.2002 26.654 83.2357 26.5743 83.2357 26.4679C83.2357 26.4059 83.2106 26.3512 83.1604 26.304C83.1101 26.2567 83.0333 26.2168 82.93 26.1843C82.8857 26.1696 82.8295 26.1533 82.7616 26.1356C82.6966 26.1179 82.6301 26.0987 82.5622 26.078C82.4943 26.0573 82.4322 26.0352 82.3761 26.0115C82.2845 25.9672 82.2107 25.9096 82.1546 25.8387C82.1014 25.7678 82.0748 25.6822 82.0748 25.5817C82.0748 25.4488 82.1073 25.3395 82.1723 25.2539C82.2373 25.1652 82.3215 25.1003 82.4248 25.0589C82.5312 25.0146 82.6449 24.9924 82.766 24.9924C82.9492 24.9924 83.1042 25.0308 83.2313 25.1076C83.3583 25.1815 83.4439 25.3189 83.4882 25.5197H83.1559C83.1353 25.4518 83.1072 25.3986 83.0717 25.3602C83.0363 25.3189 82.992 25.2908 82.9388 25.276C82.8886 25.2583 82.8281 25.2494 82.7572 25.2494C82.6685 25.2494 82.5873 25.2686 82.5135 25.307C82.4396 25.3454 82.4027 25.4119 82.4027 25.5064C82.4027 25.6009 82.4352 25.6689 82.5002 25.7102C82.5652 25.7486 82.6331 25.7797 82.704 25.8033C82.7394 25.8122 82.7897 25.8254 82.8546 25.8432C82.9226 25.8579 82.9935 25.8771 83.0673 25.9008C83.1412 25.9214 83.2062 25.9451 83.2623 25.9717C83.3627 26.0189 83.438 26.081 83.4882 26.1578C83.5385 26.2346 83.5636 26.3247 83.5636 26.428C83.5636 26.5728 83.5281 26.6909 83.4572 26.7825C83.3893 26.8711 83.2962 26.9376 83.1781 26.9819C83.0629 27.0233 82.9344 27.0439 82.7926 27.0439Z" fill="white"/>
<path d="M19.3372 2.9543C19.6164 13.9345 15.9439 15.1812 5.18109 22.9629L4.06445 17.5537C18.6645 7.91854 19.315 0.969676 19.3372 0.0935632V0C19.3372 0 19.3388 0.0315873 19.3372 0.0935632V2.9543Z" fill="url(#paint3_linear_0_1)"/>
<path d="M10.578 28.7384C17.8345 23.1491 19.3244 21.1485 19.3244 18.8684V13.9834C19.3244 13.9834 18.7185 17.659 6.61914 25.3219L10.578 28.7384Z" fill="url(#paint4_linear_0_1)"/>
<g filter="url(#filter1_d_0_1)">
<path d="M4.0994 17.4741L4.00458 25.0987C3.82025 27.1516 9.25607 29.2652 10.9772 37.9656C14.0486 26.1945 4.70425 21.4754 4.0994 17.4741Z" fill="url(#paint5_linear_0_1)"/>
</g>
<path d="M38.9311 12.4223H30.883V20.1484H29.5953V11.1346H38.9311V12.4223ZM37.8236 16.2854H31.5269V14.9977H37.8236V16.2854ZM52.0952 20.4704C52.0952 20.8824 51.9922 21.2601 51.7862 21.6035C51.5887 21.9469 51.3183 22.2173 50.9749 22.4148C50.6401 22.6208 50.2624 22.7238 49.8418 22.7238H44.691V21.4361H49.8418C50.1079 21.4361 50.3354 21.3417 50.5242 21.1528C50.7131 20.964 50.8075 20.7365 50.8075 20.4704V20.1484H47.2664C46.7771 20.1484 46.3178 20.0583 45.8886 19.878C45.4679 19.6892 45.0945 19.4316 44.7683 19.1054C44.4507 18.7792 44.2017 18.4058 44.0214 17.9851C43.8412 17.5559 43.751 17.0966 43.751 16.6073V13.0662H45.0387V16.6073C45.0387 17.0194 45.1374 17.3971 45.3349 17.7405C45.5409 18.0753 45.8113 18.3457 46.1461 18.5517C46.4809 18.7492 46.8543 18.8522 47.2664 18.8608H50.8075V13.0662H52.0952V20.4704ZM64.8459 14.3539H60.0171C59.751 14.3539 59.5235 14.4483 59.3346 14.6371C59.1458 14.826 59.0513 15.0535 59.0513 15.3196V20.1484H57.7637V15.3196C57.7637 14.899 57.8624 14.5212 58.0598 14.1865C58.2659 13.8431 58.5406 13.5727 58.8839 13.3752C59.2273 13.1692 59.605 13.0662 60.0171 13.0662H64.8459V14.3539ZM71.361 11.4566C71.361 11.7227 71.2666 11.9502 71.0777 12.139C70.8889 12.3279 70.6614 12.4223 70.3953 12.4223C70.1291 12.4223 69.9016 12.3279 69.7128 12.139C69.5239 11.9502 69.4295 11.7227 69.4295 11.4566C69.4295 11.1904 69.5239 10.9629 69.7128 10.7741C69.9016 10.5852 70.1291 10.4908 70.3953 10.4908C70.6614 10.4908 70.8889 10.5852 71.0777 10.7741C71.2666 10.9629 71.361 11.1904 71.361 11.4566ZM71.0391 20.1484H69.7514V13.0662H71.0391V20.1484ZM84.1495 17.895C84.1495 18.3156 84.0465 18.6976 83.8405 19.041C83.6431 19.3758 83.3726 19.6462 83.0293 19.8523C82.6945 20.0497 82.3167 20.1484 81.8961 20.1484H76.4234V18.8608H81.8961C82.1622 18.8608 82.3897 18.7663 82.5786 18.5775C82.7674 18.3886 82.8619 18.1611 82.8619 17.895C82.8619 17.6289 82.7674 17.4014 82.5786 17.2125C82.3897 17.0237 82.1622 16.9292 81.8961 16.9292H78.355C78.003 16.9292 77.6768 16.8434 77.3763 16.6717C77.0844 16.5 76.8527 16.2682 76.681 15.9763C76.5093 15.6759 76.4234 15.3497 76.4234 14.9977C76.4234 14.6371 76.5093 14.3109 76.681 14.0191C76.8527 13.7272 77.0844 13.4954 77.3763 13.3237C77.6768 13.152 78.003 13.0662 78.355 13.0662H83.5057V14.3539H78.355C78.1747 14.3539 78.0202 14.4182 77.8914 14.547C77.7712 14.6672 77.7111 14.8174 77.7111 14.9977C77.7111 15.178 77.7712 15.3325 77.8914 15.4613C78.0202 15.5814 78.1747 15.6415 78.355 15.6415H81.8961C82.3167 15.6415 82.6945 15.7446 83.0293 15.9506C83.3726 16.148 83.6431 16.4184 83.8405 16.7618C84.0465 17.0966 84.1495 17.4743 84.1495 17.895Z" fill="white"/>
<path d="M31.0985 26.9775V24.2569H30.1902V23.9645H32.317V24.2569H31.4087V26.9775H31.0985ZM35.909 27.0173C35.7141 27.0173 35.5353 26.976 35.3729 26.8933C35.2134 26.8076 35.0849 26.6895 34.9874 26.5388C34.8899 26.3852 34.8412 26.2065 34.8412 26.0027C34.8412 25.8136 34.887 25.6423 34.9785 25.4887C35.0701 25.3351 35.1927 25.2125 35.3463 25.1209C35.4999 25.0294 35.6712 24.9836 35.8603 24.9836C36.0434 24.9836 36.2118 25.0294 36.3654 25.1209C36.519 25.2125 36.6431 25.3336 36.7376 25.4843C36.8321 25.6349 36.8794 25.8018 36.8794 25.985V26.109H35.0361V25.821H36.5515C36.516 25.6733 36.4333 25.5493 36.3034 25.4488C36.1763 25.3454 36.0287 25.2937 35.8603 25.2937C35.7214 25.2937 35.5989 25.3262 35.4925 25.3912C35.3891 25.4562 35.3079 25.5448 35.2488 25.6571C35.1897 25.7664 35.1602 25.8904 35.1602 26.0293C35.1602 26.1651 35.1942 26.2848 35.2621 26.3882C35.3301 26.4886 35.4172 26.5669 35.5235 26.623C35.6299 26.6791 35.7421 26.7072 35.8603 26.7072C35.9518 26.7072 36.036 26.6968 36.1128 26.6762C36.1926 26.6555 36.265 26.6245 36.3299 26.5831C36.3979 26.5418 36.4584 26.4886 36.5116 26.4236L36.7464 26.6186C36.6815 26.7013 36.6017 26.7736 36.5072 26.8357C36.4156 26.8948 36.3181 26.9405 36.2147 26.973C36.1114 27.0026 36.0095 27.0173 35.909 27.0173ZM40.8196 27.0306C40.7015 27.0306 40.5848 27.0055 40.4696 26.9553C40.3544 26.9051 40.2495 26.8357 40.155 26.7471C40.0634 26.6555 39.9896 26.5477 39.9334 26.4236C39.8773 26.2995 39.8493 26.1622 39.8493 26.0115C39.8493 25.8254 39.8936 25.6556 39.9822 25.502C40.0708 25.3484 40.1904 25.2258 40.3411 25.1342C40.4917 25.0427 40.6601 24.9969 40.8462 24.9969C40.9909 24.9969 41.1268 25.0264 41.2538 25.0855C41.3838 25.1446 41.4975 25.2302 41.595 25.3425C41.6925 25.4518 41.7619 25.5832 41.8033 25.7368H41.4665C41.4133 25.6098 41.3306 25.5094 41.2184 25.4355C41.1061 25.3587 40.9924 25.3203 40.8772 25.3203C40.7502 25.3203 40.632 25.3499 40.5227 25.4089C40.4164 25.4651 40.3307 25.5448 40.2658 25.6482C40.2008 25.7516 40.1683 25.8727 40.1683 26.0115C40.1683 26.1356 40.1978 26.2508 40.2569 26.3571C40.316 26.4635 40.3972 26.5492 40.5006 26.6141C40.604 26.6762 40.7192 26.7072 40.8462 26.7072C40.9703 26.7072 41.084 26.6747 41.1874 26.6097C41.2937 26.5447 41.3764 26.4576 41.4355 26.3483H41.7855C41.7353 26.493 41.6615 26.6171 41.564 26.7205C41.4665 26.8209 41.3543 26.8977 41.2272 26.9509C41.1002 27.0041 40.9643 27.0306 40.8196 27.0306ZM44.9513 26.9863V23.6632H45.2615V25.3735C45.3235 25.2672 45.4047 25.1785 45.5052 25.1076C45.6085 25.0338 45.7326 24.9969 45.8774 24.9969C46.0398 24.9969 46.1742 25.0294 46.2806 25.0944C46.3899 25.1564 46.4711 25.245 46.5243 25.3602C46.5804 25.4754 46.6084 25.6113 46.6084 25.7678V26.9863H46.2983V25.7678C46.2983 25.691 46.2865 25.6172 46.2628 25.5463C46.2422 25.4754 46.2038 25.4178 46.1476 25.3735C46.0945 25.3292 46.0206 25.307 45.9261 25.307C45.7666 25.307 45.6381 25.341 45.5406 25.4089C45.4431 25.4769 45.3722 25.5758 45.3279 25.7058C45.2836 25.8328 45.2615 25.9879 45.2615 26.1711V26.9863H44.9513ZM49.8425 26.9863V25.0368H50.1527V25.3735C50.2147 25.2672 50.2989 25.1785 50.4053 25.1076C50.5116 25.0338 50.6371 24.9969 50.7819 24.9969C50.9355 24.9969 51.0655 25.0279 51.1718 25.0899C51.2781 25.149 51.3594 25.2361 51.4155 25.3513C51.4716 25.4636 51.4997 25.6024 51.4997 25.7678V26.9863H51.1895V25.7678C51.1895 25.691 51.1777 25.6172 51.1541 25.5463C51.1334 25.4754 51.095 25.4178 51.0389 25.3735C50.9857 25.3292 50.9119 25.307 50.8173 25.307C50.6578 25.307 50.5293 25.3454 50.4318 25.4222C50.3344 25.499 50.2635 25.6039 50.2192 25.7368C50.1749 25.8668 50.1527 26.0115 50.1527 26.1711V26.9863H49.8425ZM55.62 27.0173C55.4339 27.0173 55.2625 26.973 55.106 26.8844C54.9524 26.7928 54.8298 26.6703 54.7382 26.5167C54.6466 26.3631 54.6009 26.1917 54.6009 26.0027C54.6009 25.8136 54.6466 25.6423 54.7382 25.4887C54.8298 25.3351 54.9524 25.2125 55.106 25.1209C55.2596 25.0294 55.4309 24.9836 55.62 24.9836C55.809 24.9836 55.9803 25.0294 56.1339 25.1209C56.2875 25.2125 56.4101 25.3351 56.5017 25.4887C56.5933 25.6423 56.639 25.8136 56.639 26.0027C56.639 26.1917 56.5933 26.3631 56.5017 26.5167C56.4101 26.6703 56.2861 26.7928 56.1295 26.8844C55.9759 26.973 55.806 27.0173 55.62 27.0173ZM55.62 26.7072C55.7499 26.7072 55.8681 26.6762 55.9744 26.6141C56.0837 26.5492 56.1694 26.4635 56.2314 26.3571C56.2964 26.2508 56.3289 26.1327 56.3289 26.0027C56.3289 25.8698 56.2964 25.7501 56.2314 25.6438C56.1694 25.5374 56.0852 25.4533 55.9788 25.3912C55.8725 25.3262 55.7529 25.2937 55.62 25.2937C55.49 25.2937 55.3703 25.3262 55.2611 25.3912C55.1547 25.4533 55.069 25.5374 55.0041 25.6438C54.942 25.7501 54.911 25.8698 54.911 26.0027C54.911 26.1327 54.942 26.2508 55.0041 26.3571C55.069 26.4635 55.1547 26.5492 55.2611 26.6141C55.3703 26.6762 55.49 26.7072 55.62 26.7072ZM59.8073 26.9863V23.6632H60.1174V26.9863H59.8073ZM64.3034 27.0173C64.1173 27.0173 63.946 26.973 63.7894 26.8844C63.6358 26.7928 63.5132 26.6703 63.4216 26.5167C63.3301 26.3631 63.2843 26.1917 63.2843 26.0027C63.2843 25.8136 63.3301 25.6423 63.4216 25.4887C63.5132 25.3351 63.6358 25.2125 63.7894 25.1209C63.943 25.0294 64.1143 24.9836 64.3034 24.9836C64.4924 24.9836 64.6637 25.0294 64.8174 25.1209C64.971 25.2125 65.0935 25.3351 65.1851 25.4887C65.2767 25.6423 65.3225 25.8136 65.3225 26.0027C65.3225 26.1917 65.2767 26.3631 65.1851 26.5167C65.0935 26.6703 64.9695 26.7928 64.8129 26.8844C64.6593 26.973 64.4895 27.0173 64.3034 27.0173ZM64.3034 26.7072C64.4333 26.7072 64.5515 26.6762 64.6578 26.6141C64.7671 26.5492 64.8528 26.4635 64.9148 26.3571C64.9798 26.2508 65.0123 26.1327 65.0123 26.0027C65.0123 25.8698 64.9798 25.7501 64.9148 25.6438C64.8528 25.5374 64.7686 25.4533 64.6623 25.3912C64.5559 25.3262 64.4363 25.2937 64.3034 25.2937C64.1734 25.2937 64.0538 25.3262 63.9445 25.3912C63.8381 25.4533 63.7525 25.5374 63.6875 25.6438C63.6255 25.7501 63.5944 25.8698 63.5944 26.0027C63.5944 26.1327 63.6255 26.2508 63.6875 26.3571C63.7525 26.4635 63.8381 26.5492 63.9445 26.6141C64.0538 26.6762 64.1734 26.7072 64.3034 26.7072ZM69.2898 28.094C69.1657 28.094 69.0505 28.0719 68.9442 28.0276C68.8408 27.9833 68.7478 27.9227 68.6651 27.8459C68.5853 27.7691 68.5203 27.682 68.4701 27.5845C68.4199 27.487 68.3859 27.3836 68.3682 27.2743H68.6783C68.7138 27.4279 68.7906 27.5505 68.9088 27.6421C69.0269 27.7366 69.1539 27.7839 69.2898 27.7839C69.4198 27.7839 69.5365 27.7514 69.6398 27.6864C69.7432 27.6244 69.8245 27.5402 69.8835 27.4338C69.9456 27.3275 69.9766 27.2108 69.9766 27.0838V26.6584C69.9352 26.7175 69.8791 26.7766 69.8082 26.8357C69.7403 26.8918 69.659 26.9391 69.5645 26.9775C69.4729 27.0129 69.3666 27.0306 69.2455 27.0306C69.0624 27.0306 68.8984 26.9834 68.7537 26.8888C68.6089 26.7943 68.4952 26.6703 68.4125 26.5167C68.3327 26.3601 68.2929 26.1917 68.2929 26.0115C68.2929 25.8314 68.3327 25.6645 68.4125 25.5109C68.4952 25.3543 68.6089 25.2288 68.7537 25.1342C68.8984 25.0397 69.0624 24.9924 69.2455 24.9924C69.3666 24.9924 69.4744 25.0131 69.5689 25.0545C69.6664 25.0929 69.7491 25.1416 69.8171 25.2007C69.885 25.2568 69.9382 25.3115 69.9766 25.3646V25.0368H70.2867V27.0838C70.2867 27.2699 70.2424 27.4383 70.1538 27.5889C70.0652 27.7425 69.9456 27.8651 69.7949 27.9567C69.6443 28.0483 69.4759 28.094 69.2898 28.094ZM69.2898 26.7205C69.4227 26.7205 69.5409 26.688 69.6443 26.623C69.7477 26.5551 69.8289 26.4679 69.888 26.3616C69.947 26.2523 69.9766 26.1356 69.9766 26.0115C69.9766 25.8845 69.947 25.7678 69.888 25.6615C69.8289 25.5552 69.7477 25.4695 69.6443 25.4045C69.5409 25.3366 69.4227 25.3026 69.2898 25.3026C69.1628 25.3026 69.0461 25.3351 68.9398 25.4001C68.8364 25.4651 68.7537 25.5507 68.6916 25.6571C68.6326 25.7634 68.603 25.8816 68.603 26.0115C68.603 26.1386 68.6326 26.2567 68.6916 26.366C68.7537 26.4723 68.8364 26.558 68.9398 26.623C69.0461 26.688 69.1628 26.7205 69.2898 26.7205ZM73.6118 26.9863V25.0368H73.9219V26.9863H73.6118ZM73.7669 24.7C73.7107 24.7 73.6635 24.6808 73.6251 24.6424C73.5867 24.604 73.5675 24.5567 73.5675 24.5006C73.5675 24.4475 73.5867 24.4017 73.6251 24.3633C73.6635 24.3249 73.7107 24.3057 73.7669 24.3057C73.82 24.3057 73.8658 24.3249 73.9042 24.3633C73.9426 24.4017 73.9618 24.4475 73.9618 24.5006C73.9618 24.5567 73.9426 24.604 73.9042 24.6424C73.8658 24.6808 73.82 24.7 73.7669 24.7ZM78.1301 27.0173C77.9352 27.0173 77.7565 26.976 77.594 26.8933C77.4345 26.8076 77.306 26.6895 77.2085 26.5388C77.111 26.3852 77.0623 26.2065 77.0623 26.0027C77.0623 25.8136 77.1081 25.6423 77.1997 25.4887C77.2912 25.3351 77.4138 25.2125 77.5674 25.1209C77.721 25.0294 77.8924 24.9836 78.0814 24.9836C78.2645 24.9836 78.4329 25.0294 78.5865 25.1209C78.7401 25.2125 78.8642 25.3336 78.9587 25.4843C79.0532 25.6349 79.1005 25.8018 79.1005 25.985V26.109H77.2573V25.821H78.7726C78.7372 25.6733 78.6545 25.5493 78.5245 25.4488C78.3975 25.3454 78.2498 25.2937 78.0814 25.2937C77.9426 25.2937 77.82 25.3262 77.7136 25.3912C77.6103 25.4562 77.529 25.5448 77.4699 25.6571C77.4109 25.7664 77.3813 25.8904 77.3813 26.0293C77.3813 26.1651 77.4153 26.2848 77.4832 26.3882C77.5512 26.4886 77.6383 26.5669 77.7447 26.623C77.851 26.6791 77.9632 26.7072 78.0814 26.7072C78.173 26.7072 78.2572 26.6968 78.334 26.6762C78.4137 26.6555 78.4861 26.6245 78.5511 26.5831C78.619 26.5418 78.6796 26.4886 78.7327 26.4236L78.9676 26.6186C78.9026 26.7013 78.8228 26.7736 78.7283 26.8357C78.6367 26.8948 78.5393 26.9405 78.4359 26.973C78.3325 27.0026 78.2306 27.0173 78.1301 27.0173ZM82.7926 27.0439C82.642 27.0439 82.512 27.0218 82.4027 26.9775C82.2963 26.9332 82.2107 26.8667 82.1457 26.7781C82.0807 26.6865 82.0364 26.5743 82.0128 26.4413H82.3407C82.3643 26.527 82.3983 26.5964 82.4426 26.6496C82.4869 26.6998 82.54 26.7352 82.6021 26.7559C82.6641 26.7766 82.7335 26.7869 82.8103 26.7869C82.9521 26.7869 83.0585 26.7604 83.1293 26.7072C83.2002 26.654 83.2357 26.5743 83.2357 26.4679C83.2357 26.4059 83.2106 26.3512 83.1604 26.304C83.1101 26.2567 83.0333 26.2168 82.93 26.1843C82.8857 26.1696 82.8295 26.1533 82.7616 26.1356C82.6966 26.1179 82.6301 26.0987 82.5622 26.078C82.4943 26.0573 82.4322 26.0352 82.3761 26.0115C82.2845 25.9672 82.2107 25.9096 82.1546 25.8387C82.1014 25.7678 82.0748 25.6822 82.0748 25.5817C82.0748 25.4488 82.1073 25.3395 82.1723 25.2539C82.2373 25.1652 82.3215 25.1003 82.4248 25.0589C82.5312 25.0146 82.6449 24.9924 82.766 24.9924C82.9492 24.9924 83.1042 25.0308 83.2313 25.1076C83.3583 25.1815 83.4439 25.3189 83.4882 25.5197H83.1559C83.1353 25.4518 83.1072 25.3986 83.0717 25.3602C83.0363 25.3189 82.992 25.2908 82.9388 25.276C82.8886 25.2583 82.8281 25.2494 82.7572 25.2494C82.6685 25.2494 82.5873 25.2686 82.5135 25.307C82.4396 25.3454 82.4027 25.4119 82.4027 25.5064C82.4027 25.6009 82.4352 25.6689 82.5002 25.7102C82.5652 25.7486 82.6331 25.7797 82.704 25.8033C82.7394 25.8122 82.7897 25.8254 82.8546 25.8432C82.9226 25.8579 82.9935 25.8771 83.0673 25.9008C83.1412 25.9214 83.2062 25.9451 83.2623 25.9717C83.3627 26.0189 83.438 26.081 83.4882 26.1578C83.5385 26.2346 83.5636 26.3247 83.5636 26.428C83.5636 26.5728 83.5281 26.6909 83.4572 26.7825C83.3893 26.8711 83.2962 26.9376 83.1781 26.9819C83.0629 27.0233 82.9344 27.0439 82.7926 27.0439Z" fill="white"/>
<defs>
<filter id="filter0_d_0_1" x="0.386096" y="12.5127" width="16.7831" height="29.6796" filterUnits="userSpaceOnUse" color-interpolation-filters="sRGB">
<feFlood flood-opacity="0" result="BackgroundImageFix"/>
<feColorMatrix in="SourceAlpha" type="matrix" values="0 0 0 0 0 0 0 0 0 0 0 0 0 0 0 0 0 0 127 0" result="hardAlpha"/>
<feOffset dx="0.980042" dy="-0.367516"/>
<feGaussianBlur stdDeviation="2.29697"/>
<feComposite in2="hardAlpha" operator="out"/>
<feColorMatrix type="matrix" values="0 0 0 0 0 0 0 0 0 0 0 0 0 0 0 0 0 0 0.25 0"/>
<feBlend mode="normal" in2="BackgroundImageFix" result="effect1_dropShadow_0_1"/>
<feBlend mode="normal" in="SourceGraphic" in2="effect1_dropShadow_0_1" result="shape"/>
</filter>
<filter id="filter1_d_0_1" x="0.386096" y="12.5127" width="16.7831" height="29.6796" filterUnits="userSpaceOnUse" color-interpolation-filters="sRGB">
<feFlood flood-opacity="0" result="BackgroundImageFix"/>
<feColorMatrix in="SourceAlpha" type="matrix" values="0 0 0 0 0 0 0 0 0 0 0 0 0 0 0 0 0 0 127 0" result="hardAlpha"/>
<feOffset dx="0.980042" dy="-0.367516"/>
<feGaussianBlur stdDeviation="2.29697"/>
<feComposite in2="hardAlpha" operator="out"/>
<feColorMatrix type="matrix" values="0 0 0 0 0 0 0 0 0 0 0 0 0 0 0 0 0 0 0.25 0"/>
<feBlend mode="normal" in2="BackgroundImageFix" result="effect1_dropShadow_0_1"/>
<feBlend mode="normal" in="SourceGraphic" in2="effect1_dropShadow_0_1" result="shape"/>
</filter>
<linearGradient id="paint0_linear_0_1" x1="16.8915" y1="3.29916" x2="7.67612" y2="20.1908" gradientUnits="userSpaceOnUse">
<stop stop-color="#04BCEC"/>
<stop offset="0.587822" stop-color="#543BB1"/>
<stop offset="1" stop-color="#7F2EA0"/>
</linearGradient>
<linearGradient id="paint1_linear_0_1" x1="13.7458" y1="17.3119" x2="15.5801" y2="30.79" gradientUnits="userSpaceOnUse">
<stop stop-color="#4878EA"/>
<stop offset="0.647663" stop-color="#6D008D"/>
</linearGradient>
<linearGradient id="paint2_linear_0_1" x1="2.98505" y1="19.0591" x2="6.24343" y2="34.2116" gradientUnits="userSpaceOnUse">
<stop stop-color="#00C7F1"/>
<stop offset="0.596154" stop-color="#3A2CAB"/>
<stop offset="0.868953" stop-color="#692DA3"/>
<stop offset="1" stop-color="#7F2EA0"/>
</linearGradient>
<linearGradient id="paint3_linear_0_1" x1="16.8915" y1="3.29916" x2="7.67612" y2="20.1908" gradientUnits="userSpaceOnUse">
<stop stop-color="#04BCEC"/>
<stop offset="0.587822" stop-color="#543BB1"/>
<stop offset="1" stop-color="#7F2EA0"/>
</linearGradient>
<linearGradient id="paint4_linear_0_1" x1="13.7458" y1="17.3119" x2="15.5801" y2="30.79" gradientUnits="userSpaceOnUse">
<stop stop-color="#4878EA"/>
<stop offset="0.647663" stop-color="#6D008D"/>
</linearGradient>
<linearGradient id="paint5_linear_0_1" x1="2.98505" y1="19.0591" x2="6.24343" y2="34.2116" gradientUnits="userSpaceOnUse">
<stop stop-color="#00C7F1"/>
<stop offset="0.596154" stop-color="#3A2CAB"/>
<stop offset="0.868953" stop-color="#692DA3"/>
<stop offset="1" stop-color="#7F2EA0"/>
</linearGradient>
</defs>
</svg>
